<svg width="206" height="86" viewBox="0 0 206 86" fill="none" xmlns="http://www.w3.org/2000/svg">
<path d="M63.8341 0.5L67 26.9053L80.2691 1.94815L73.116 28.0021L95.5841 6.19392L78.5995 30.1211L108.735 12.948L83.0768 33.1176L118.827 21.75L86.2427 36.7877L125.17 32.0002L87.8814 40.8811L127.334 43L87.8814 45.1189L125.17 53.9998L86.2427 49.2123L118.827 64.25L83.0768 52.8824L108.735 73.052L78.5995 55.8789L95.5841 79.8061L73.116 57.9978L80.2691 84.0518L67 59.0947L63.8341 85.5L60.6682 59.0947L47.3991 84.0518L54.5522 57.9978L32.0841 79.8061L49.0687 55.8789L18.9328 73.052L44.5914 52.8824L8.84149 64.25L41.4256 49.2123L2.49782 53.9998L39.7868 45.1189L0.334106 43L39.7868 40.8811L2.49782 32.0002L41.4256 36.7877L8.84149 21.75L44.5914 33.1176L18.9328 12.948L49.0687 30.1211L32.0841 6.19392L54.5522 28.0021L47.3991 1.94815L60.6682 26.9053L63.8341 0.5Z" fill="#2FD654"/>
<path d="M23.0156 43.4521C23.0156 39.9108 23.8345 37.0973 25.4722 35.0117C27.1099 32.9121 29.2795 31.8623 31.981 31.8623C34.7524 31.8623 36.915 32.8421 38.4688 34.8018L38.53 33.9852C38.602 33.0247 39.4023 32.2822 40.3654 32.2822C41.382 32.2822 42.2061 33.1063 42.2061 34.1228V54.4541C42.2061 57.3936 41.3312 59.7101 39.5815 61.4038C37.8459 63.0975 35.5083 63.9443 32.5688 63.9443C30.9312 63.9443 29.3285 63.5944 27.7607 62.8945C26.6194 62.385 25.6747 61.7383 24.9266 60.9543C24.436 60.4401 24.4937 59.6443 24.9586 59.1068C25.5983 58.367 26.744 58.4014 27.4941 59.0289C28.885 60.1922 30.4856 60.7739 32.2959 60.7739C34.1855 60.7739 35.6553 60.242 36.7051 59.1782C37.7689 58.1144 38.3008 56.6167 38.3008 54.6851V52.7324C36.7471 54.5241 34.6265 55.4199 31.939 55.4199C29.2795 55.4199 27.1239 54.3491 25.4722 52.2075C23.8345 50.0659 23.0156 47.1475 23.0156 43.4521ZM26.9209 43.8931C26.9209 46.4546 27.4458 48.4702 28.4956 49.9399C29.5454 51.3957 31.0151 52.1235 32.9048 52.1235C35.3543 52.1235 37.153 51.0107 38.3008 48.7852V38.4131C37.111 36.2435 35.3263 35.1587 32.9468 35.1587C31.0571 35.1587 29.5804 35.8936 28.5166 37.3633C27.4528 38.833 26.9209 41.0096 26.9209 43.8931Z" fill="#1E86C0"/>
<path d="M47.0562 43.4312C47.0562 41.2056 47.4901 39.2039 48.3579 37.4263C49.2397 35.6486 50.4575 34.2769 52.0112 33.311C53.5789 32.3452 55.3636 31.8623 57.3652 31.8623C60.4587 31.8623 62.9572 32.9331 64.8608 35.0747C66.7785 37.2163 67.7373 40.0648 67.7373 43.6201V43.8931C67.7373 46.1047 67.3104 48.0923 66.4565 49.856C65.6167 51.6056 64.4059 52.9704 62.8242 53.9502C61.2565 54.93 59.4508 55.4199 57.4072 55.4199C54.3278 55.4199 51.8293 54.3491 49.9116 52.2075C48.008 50.0659 47.0562 47.2314 47.0562 43.7041V43.4312ZM50.9614 43.8931C50.9614 46.4126 51.5423 48.4352 52.7041 49.9609C53.8799 51.4867 55.4476 52.2495 57.4072 52.2495C59.3809 52.2495 60.9486 51.4797 62.1104 49.9399C63.2721 48.3862 63.853 46.2166 63.853 43.4312C63.853 40.9396 63.2581 38.924 62.0684 37.3843C60.8926 35.8306 59.3249 35.0537 57.3652 35.0537C55.4476 35.0537 53.9009 35.8166 52.7251 37.3423C51.5493 38.868 50.9614 41.0516 50.9614 43.8931Z" fill="#1E86C0"/>
<path d="M95.7041 45.2998C95.3262 48.5332 94.1294 51.0317 92.1138 52.7954C90.1121 54.5451 87.4456 55.4199 84.1143 55.4199C80.5029 55.4199 77.6055 54.1252 75.4219 51.5356C73.2523 48.9461 72.1675 45.4818 72.1675 41.1426V38.2031C72.1675 35.3617 72.6714 32.8631 73.6792 30.7075C74.701 28.5519 76.1427 26.9002 78.0044 25.7524C79.866 24.5907 82.0216 24.0098 84.4712 24.0098C87.7186 24.0098 90.3221 24.9196 92.2817 26.7393C94.2414 28.5449 95.3822 31.0505 95.7041 34.2559H91.6519C91.3019 31.8203 90.5391 30.0566 89.3633 28.9648C88.2015 27.873 86.5708 27.3271 84.4712 27.3271C81.8957 27.3271 79.873 28.279 78.4033 30.1826C76.9476 32.0863 76.2197 34.7948 76.2197 38.3081V41.2686C76.2197 44.5859 76.9126 47.2244 78.2983 49.1841C79.6841 51.1437 81.6227 52.1235 84.1143 52.1235C86.3538 52.1235 88.0685 51.6196 89.2583 50.6118C90.4621 49.59 91.2599 47.8193 91.6519 45.2998H95.7041Z" fill="#1E86C0"/>
<path d="M99.5884 43.4312C99.5884 41.2056 100.022 39.2039 100.89 37.4263C101.772 35.6486 102.99 34.2769 104.543 33.311C106.111 32.3452 107.896 31.8623 109.897 31.8623C112.991 31.8623 115.489 32.9331 117.393 35.0747C119.311 37.2163 120.27 40.0648 120.27 43.6201V43.8931C120.27 46.1047 119.843 48.0923 118.989 49.856C118.149 51.6056 116.938 52.9704 115.356 53.9502C113.789 54.93 111.983 55.4199 109.939 55.4199C106.86 55.4199 104.361 54.3491 102.444 52.2075C100.54 50.0659 99.5884 47.2314 99.5884 43.7041V43.4312ZM103.494 43.8931C103.494 46.4126 104.075 48.4352 105.236 49.9609C106.412 51.4867 107.98 52.2495 109.939 52.2495C111.913 52.2495 113.481 51.4797 114.643 49.9399C115.804 48.3862 116.385 46.2166 116.385 43.4312C116.385 40.9396 115.79 38.924 114.601 37.3843C113.425 35.8306 111.857 35.0537 109.897 35.0537C107.98 35.0537 106.433 35.8166 105.257 37.3423C104.082 38.868 103.494 41.0516 103.494 43.8931Z" fill="#1E86C0"/>
<path d="M136.122 35.7676C135.534 35.6696 134.897 35.6206 134.211 35.6206C131.663 35.6206 129.935 36.7054 129.025 38.875V55H125.141V32.2822H128.92L128.983 34.9067C130.257 32.8771 132.062 31.8623 134.4 31.8623C135.156 31.8623 135.73 31.9603 136.122 32.1562V35.7676Z" fill="#1E86C0"/>
<path d="M138.263 43.4312C138.263 41.2056 138.697 39.2039 139.565 37.4263C140.447 35.6486 141.665 34.2769 143.218 33.311C144.786 32.3452 146.571 31.8623 148.572 31.8623C151.666 31.8623 154.164 32.9331 156.068 35.0747C157.986 37.2163 158.944 40.0648 158.944 43.6201V43.8931C158.944 46.1047 158.517 48.0923 157.664 49.856C156.824 51.6056 155.613 52.9704 154.031 53.9502C152.464 54.93 150.658 55.4199 148.614 55.4199C145.535 55.4199 143.036 54.3491 141.119 52.2075C139.215 50.0659 138.263 47.2314 138.263 43.7041V43.4312ZM142.168 43.8931C142.168 46.4126 142.749 48.4352 143.911 49.9609C145.087 51.4867 146.655 52.2495 148.614 52.2495C150.588 52.2495 152.156 51.4797 153.317 49.9399C154.479 48.3862 155.06 46.2166 155.06 43.4312C155.06 40.9396 154.465 38.924 153.275 37.3843C152.1 35.8306 150.532 35.0537 148.572 35.0537C146.655 35.0537 145.108 35.8166 143.932 37.3423C142.756 38.868 142.168 41.0516 142.168 43.8931Z" fill="#1E86C0"/>
<path d="M167.49 32.2822L167.616 35.1377C169.351 32.9541 171.619 31.8623 174.418 31.8623C179.22 31.8623 181.641 34.5708 181.683 39.9878V55H177.799V39.9668C177.785 38.3291 177.407 37.1183 176.665 36.3345C175.937 35.5506 174.796 35.1587 173.243 35.1587C171.983 35.1587 170.877 35.4946 169.925 36.1665C168.973 36.8384 168.232 37.7202 167.7 38.812V55H163.815V43.6411V32.2822H167.49Z" fill="#1E86C0"/>
<path d="M201.566 55C201.342 54.5521 201.16 53.7542 201.021 52.6064C199.215 54.4821 197.059 55.4199 194.554 55.4199C192.314 55.4199 190.473 54.79 189.032 53.5303C187.604 52.2565 186.89 50.6468 186.89 48.7012C186.89 46.3356 187.786 44.502 189.578 43.2002C191.383 41.8844 193.917 41.2266 197.178 41.2266H200.958V39.4419C200.958 38.0841 200.552 37.0063 199.74 36.2085C198.928 35.3966 197.731 34.9907 196.149 34.9907C194.764 34.9907 193.602 35.3407 192.664 36.0405C191.726 36.7404 191.257 37.5872 191.257 38.5811H187.352C187.352 37.4473 187.751 36.3555 188.549 35.3057C189.361 34.2419 190.452 33.402 191.824 32.7861C193.21 32.1702 194.729 31.8623 196.38 31.8623C198.998 31.8623 201.049 32.5202 202.532 33.8359C204.016 35.1377 204.786 36.9364 204.842 39.2319V49.688C204.842 51.7736 205.108 53.4323 205.64 54.6641V55H201.566ZM195.121 52.0396C196.338 52.0396 197.493 51.7246 198.585 51.0947C199.677 50.4648 200.468 49.646 200.958 48.6382V43.9771H197.913C193.154 43.9771 190.774 45.3698 190.774 48.1553C190.774 49.373 191.18 50.3249 191.992 51.0107C192.804 51.6966 193.847 52.0396 195.121 52.0396Z" fill="#1E86C0"/>
</svg>
