<svg width="26" height="25" viewBox="0 0 26 25" fill="none" xmlns="http://www.w3.org/2000/svg">
<path d="M15.5104 15.5104L15.864 15.1569L15.5104 14.8033L15.1569 15.1569L15.5104 15.5104ZM16.176 14.7618L15.7835 14.452L15.5081 14.801L15.8225 15.1154L16.176 14.7618ZM24.7071 23.2929L25.0607 23.6464L25.4142 23.2929L25.0607 22.9393L24.7071 23.2929ZM24 24L23.6464 24.3536L24 24.7071L24.3536 24.3536L24 24ZM9.5 17.5C13.9183 17.5 17.5 13.9183 17.5 9.5H16.5C16.5 13.366 13.366 16.5 9.5 16.5V17.5ZM1.5 9.5C1.5 13.9183 5.08172 17.5 9.5 17.5V16.5C5.63401 16.5 2.5 13.366 2.5 9.5H1.5ZM9.5 1.5C5.08172 1.5 1.5 5.08172 1.5 9.5H2.5C2.5 5.63401 5.63401 2.5 9.5 2.5V1.5ZM17.5 9.5C17.5 5.08172 13.9183 1.5 9.5 1.5V2.5C13.366 2.5 16.5 5.63401 16.5 9.5H17.5ZM9.5 18.5C11.9851 18.5 14.2358 17.4921 15.864 15.864L15.1569 15.1569C13.7086 16.6051 11.7093 17.5 9.5 17.5V18.5ZM0.5 9.5C0.5 14.4706 4.52944 18.5 9.5 18.5V17.5C5.08172 17.5 1.5 13.9183 1.5 9.5H0.5ZM9.5 0.5C4.52944 0.5 0.5 4.52944 0.5 9.5H1.5C1.5 5.08172 5.08172 1.5 9.5 1.5V0.5ZM18.5 9.5C18.5 4.52944 14.4706 0.5 9.5 0.5V1.5C13.9183 1.5 17.5 5.08172 17.5 9.5H18.5ZM16.5685 15.0716C17.7779 13.5392 18.5 11.6032 18.5 9.5H17.5C17.5 11.3705 16.8587 13.0898 15.7835 14.452L16.5685 15.0716ZM15.8225 15.1154L24.3536 23.6464L25.0607 22.9393L16.5296 14.4083L15.8225 15.1154ZM24.3536 22.9393L23.6464 23.6464L24.3536 24.3536L25.0607 23.6464L24.3536 22.9393ZM24.3536 23.6464L15.864 15.1569L15.1569 15.864L23.6464 24.3536L24.3536 23.6464Z" fill="#969696"/>
</svg>
